<mxfile host="www.draw.io" modified="2020-01-09T05:49:51.633Z" agent="Mozilla/5.0 (Macintosh; Intel Mac OS X 10_14_6) AppleWebKit/537.36 (KHTML, like Gecko) Chrome/79.0.3945.88 Safari/537.36" etag="p8DM9egHgOEueJ5nlQ2z" version="12.4.9" type="github">
  <diagram id="jOhKiwx7e5Yemb9SuLLx" name="第 1 页">
    <mxGraphModel dx="1373" dy="773" grid="1" gridSize="10" guides="1" tooltips="1" connect="1" arrows="1" fold="1" page="1" pageScale="1" pageWidth="827" pageHeight="1169" math="0" shadow="0">
      <root>
        <mxCell id="0"/>
        <mxCell id="1" parent="0"/>
        <mxCell id="4Ny-9kU0FZ-ozSrMpoTr-1" value="kafka" style="shape=cylinder;whiteSpace=wrap;html=1;boundedLbl=1;backgroundOutline=1;" parent="1" vertex="1">
          <mxGeometry x="383" y="310" width="60" height="80" as="geometry"/>
        </mxCell>
        <mxCell id="4Ny-9kU0FZ-ozSrMpoTr-7" style="edgeStyle=orthogonalEdgeStyle;rounded=0;orthogonalLoop=1;jettySize=auto;html=1;exitX=0.75;exitY=1;exitDx=0;exitDy=0;entryX=0;entryY=0.5;entryDx=0;entryDy=0;" parent="1" source="4Ny-9kU0FZ-ozSrMpoTr-2" target="4Ny-9kU0FZ-ozSrMpoTr-1" edge="1">
          <mxGeometry relative="1" as="geometry"/>
        </mxCell>
        <mxCell id="HQ8pBB1uScK3YlhlCwJt-3" value="3" style="text;html=1;align=center;verticalAlign=middle;resizable=0;points=[];labelBackgroundColor=#ffffff;" vertex="1" connectable="0" parent="4Ny-9kU0FZ-ozSrMpoTr-7">
          <mxGeometry x="-0.2481" y="1" relative="1" as="geometry">
            <mxPoint as="offset"/>
          </mxGeometry>
        </mxCell>
        <mxCell id="4Ny-9kU0FZ-ozSrMpoTr-15" style="edgeStyle=orthogonalEdgeStyle;rounded=0;orthogonalLoop=1;jettySize=auto;html=1;exitX=0.5;exitY=1;exitDx=0;exitDy=0;entryX=0;entryY=0.5;entryDx=0;entryDy=0;" parent="1" source="4Ny-9kU0FZ-ozSrMpoTr-2" target="4Ny-9kU0FZ-ozSrMpoTr-14" edge="1">
          <mxGeometry relative="1" as="geometry"/>
        </mxCell>
        <mxCell id="HQ8pBB1uScK3YlhlCwJt-1" value="1" style="text;html=1;align=center;verticalAlign=middle;resizable=0;points=[];labelBackgroundColor=#ffffff;" vertex="1" connectable="0" parent="4Ny-9kU0FZ-ozSrMpoTr-15">
          <mxGeometry x="-0.3407" relative="1" as="geometry">
            <mxPoint as="offset"/>
          </mxGeometry>
        </mxCell>
        <mxCell id="4Ny-9kU0FZ-ozSrMpoTr-2" value="mq-proxy" style="rounded=1;whiteSpace=wrap;html=1;" parent="1" vertex="1">
          <mxGeometry x="230" y="220" width="120" height="60" as="geometry"/>
        </mxCell>
        <mxCell id="4Ny-9kU0FZ-ozSrMpoTr-10" style="edgeStyle=orthogonalEdgeStyle;rounded=0;orthogonalLoop=1;jettySize=auto;html=1;exitX=0.5;exitY=1;exitDx=0;exitDy=0;entryX=1;entryY=0.5;entryDx=0;entryDy=0;" parent="1" source="4Ny-9kU0FZ-ozSrMpoTr-3" target="4Ny-9kU0FZ-ozSrMpoTr-1" edge="1">
          <mxGeometry relative="1" as="geometry"/>
        </mxCell>
        <mxCell id="4Ny-9kU0FZ-ozSrMpoTr-11" style="edgeStyle=orthogonalEdgeStyle;rounded=0;orthogonalLoop=1;jettySize=auto;html=1;exitX=0.5;exitY=0;exitDx=0;exitDy=0;entryX=0.5;entryY=1;entryDx=0;entryDy=0;" parent="1" source="4Ny-9kU0FZ-ozSrMpoTr-3" target="4Ny-9kU0FZ-ozSrMpoTr-5" edge="1">
          <mxGeometry relative="1" as="geometry"/>
        </mxCell>
        <mxCell id="4Ny-9kU0FZ-ozSrMpoTr-13" value="HTTP" style="text;html=1;align=center;verticalAlign=middle;resizable=0;points=[];labelBackgroundColor=#ffffff;" parent="4Ny-9kU0FZ-ozSrMpoTr-11" vertex="1" connectable="0">
          <mxGeometry x="0.0571" relative="1" as="geometry">
            <mxPoint as="offset"/>
          </mxGeometry>
        </mxCell>
        <mxCell id="4Ny-9kU0FZ-ozSrMpoTr-3" value="mq-pusher" style="rounded=1;whiteSpace=wrap;html=1;" parent="1" vertex="1">
          <mxGeometry x="460" y="220" width="120" height="60" as="geometry"/>
        </mxCell>
        <mxCell id="4Ny-9kU0FZ-ozSrMpoTr-6" style="edgeStyle=orthogonalEdgeStyle;rounded=0;orthogonalLoop=1;jettySize=auto;html=1;exitX=0.5;exitY=1;exitDx=0;exitDy=0;entryX=0.5;entryY=0;entryDx=0;entryDy=0;" parent="1" source="4Ny-9kU0FZ-ozSrMpoTr-4" target="4Ny-9kU0FZ-ozSrMpoTr-2" edge="1">
          <mxGeometry relative="1" as="geometry"/>
        </mxCell>
        <mxCell id="4Ny-9kU0FZ-ozSrMpoTr-12" value="HTTP" style="text;html=1;align=center;verticalAlign=middle;resizable=0;points=[];labelBackgroundColor=#ffffff;" parent="4Ny-9kU0FZ-ozSrMpoTr-6" vertex="1" connectable="0">
          <mxGeometry x="0.0857" y="-1" relative="1" as="geometry">
            <mxPoint as="offset"/>
          </mxGeometry>
        </mxCell>
        <mxCell id="4Ny-9kU0FZ-ozSrMpoTr-4" value="product" style="rounded=1;whiteSpace=wrap;html=1;" parent="1" vertex="1">
          <mxGeometry x="230" y="90" width="120" height="60" as="geometry"/>
        </mxCell>
        <mxCell id="4Ny-9kU0FZ-ozSrMpoTr-5" value="customer" style="rounded=1;whiteSpace=wrap;html=1;" parent="1" vertex="1">
          <mxGeometry x="460" y="90" width="120" height="60" as="geometry"/>
        </mxCell>
        <mxCell id="4Ny-9kU0FZ-ozSrMpoTr-16" style="edgeStyle=orthogonalEdgeStyle;rounded=0;orthogonalLoop=1;jettySize=auto;html=1;exitX=0;exitY=0.7;exitDx=0;exitDy=0;entryX=0.25;entryY=1;entryDx=0;entryDy=0;" parent="1" source="4Ny-9kU0FZ-ozSrMpoTr-14" target="4Ny-9kU0FZ-ozSrMpoTr-2" edge="1">
          <mxGeometry relative="1" as="geometry"/>
        </mxCell>
        <mxCell id="HQ8pBB1uScK3YlhlCwJt-2" value="2" style="text;html=1;align=center;verticalAlign=middle;resizable=0;points=[];labelBackgroundColor=#ffffff;" vertex="1" connectable="0" parent="4Ny-9kU0FZ-ozSrMpoTr-16">
          <mxGeometry x="0.4295" y="1" relative="1" as="geometry">
            <mxPoint as="offset"/>
          </mxGeometry>
        </mxCell>
        <mxCell id="4Ny-9kU0FZ-ozSrMpoTr-14" value="Redis" style="shape=cylinder;whiteSpace=wrap;html=1;boundedLbl=1;backgroundOutline=1;" parent="1" vertex="1">
          <mxGeometry x="383" y="420" width="60" height="80" as="geometry"/>
        </mxCell>
      </root>
    </mxGraphModel>
  </diagram>
</mxfile>
